<svg width="335" height="395" viewBox="0 0 335 395" fill="none" xmlns="http://www.w3.org/2000/svg">
<ellipse cx="167.5" cy="197" rx="167.5" ry="197" fill="#E1E1E1"/>
<path d="M184.299 57.9133L180.401 55.6856L177.338 54.2933H173.161H167.592L162.023 56.521L157.01 60.1409L147.543 70.1654L140.025 79.076L131.392 91.0496L126.659 98.2895L123.874 102.745L120.533 108.592L119.14 112.769L118.027 116.389L116.356 122.237L115.242 128.084V132.818V138.666L118.027 140.893L119.14 143.678L121.925 148.133L127.494 154.259L135.012 158.158L139.189 160.385H136.683L87.3963 199.648L84.6118 201.04L82.941 207.444L81.8272 215.52L80.7134 239.189H81.8272L81.5487 246.707L80.9918 268.426L82.1057 298.778L84.3333 319.941L86.8394 337.762L88.7886 343.61L91.5732 346.951L98.5346 348.9L109.951 350.293L109.116 367H231.637L229.131 350.85L228.295 345.837L230.523 343.61L231.637 341.661V338.876V336.648L232.751 335.256L233.865 333.307L232.751 331.079L231.637 329.408V325.789L230.523 323.561L227.182 322.447L222.726 321.89V317.156L238.041 285.691L249.737 253.111L250.572 248.656H251.964L253.635 240.859L255.027 229.443V219.697V214.406L253.635 210.508L250.572 206.052L246.117 202.711L233.029 197.142L211.588 190.737L199.893 187.117L191.261 183.497L190.147 179.042V168.739V160.107L192.931 157.044L198.779 151.196L204.348 145.07L208.803 138.944L211.588 130.59L212.98 129.477L214.651 126.692L216.6 123.351L217.992 118.895V115.275L216.6 111.377L214.651 106.922L212.98 103.58L211.31 105.251L210.474 106.922V112.212L209.639 109.428L207.968 100.239L204.348 89.6573L200.171 79.6329L194.324 68.4946L189.868 62.0901L184.299 57.9133Z" fill="#FFDEB3"/>
<path d="M190.425 184.332L187.919 160.664L136.962 152.867L122.203 170.41L111.344 209.394L140.025 233.619L181.236 236.682L209.639 219.975L210.753 190.18L190.425 184.332Z" fill="#FAD6A6"/>
<path d="M183.185 174.587L163.415 180.713L158.96 173.473C158.96 173.473 161.98 172.587 163.972 172.359C166.133 172.112 167.378 172.587 169.541 172.359C171.981 172.102 173.456 172.03 175.667 170.967C177.216 170.221 177.838 169.386 179.287 168.46C180.356 167.778 181.068 167.565 182.072 166.79C183.167 165.944 183.583 165.246 184.578 164.284C185.961 162.946 188.198 160.942 188.198 160.942L188.755 167.347L189.311 174.03L190.425 184.889L193.21 185.446L202.12 187.674L206.854 189.066L208.803 189.623L210.474 190.18L210.196 190.737L209.639 192.965L208.803 195.192C208.803 195.192 205.747 194.866 203.791 194.635C197.575 193.901 190.425 193.522 187.919 192.408C186.087 191.593 185.624 190.22 184.578 188.509C181.728 183.847 183.185 174.587 183.185 174.587Z" fill="#F2CA99"/>
<path d="M182.072 194.357C181.282 195.229 180.401 196.863 180.401 196.863C180.401 196.863 181.597 196.83 182.35 196.585C183.233 196.297 183.947 196.221 184.856 196.028C186.132 195.756 186.615 195.695 187.919 195.749C189.228 195.804 190.516 195.882 191.818 196.028C193.896 196.26 194.48 196.295 196.551 196.585C198.288 196.828 199.269 196.908 201.007 197.142C202.531 197.347 204.905 197.698 204.905 197.698L204.627 198.812C204.627 198.812 203.685 201.819 202.677 203.546C201.548 205.483 200.561 206.338 199.057 208.001C197.614 209.599 196.765 210.465 195.159 211.9C193.601 213.292 192.755 214.137 190.982 215.241C188.958 216.502 187.649 216.917 185.413 217.747C183.284 218.538 182.071 218.973 179.844 219.418C178.124 219.762 177.119 220.261 175.389 219.975C173.994 219.745 172.047 218.583 172.047 218.583L155.061 215.798L147.543 217.19L148.378 221.367L151.998 222.481L155.34 223.038L158.403 226.101L168.427 224.152C168.427 224.152 173.816 222.738 177.338 222.203C179.178 221.923 180.263 222.085 182.072 221.646C183.643 221.265 184.462 220.835 185.97 220.253C188.515 219.272 190.037 218.874 192.374 217.469C194.369 216.27 195.358 215.382 197.108 213.849C198.843 212.329 199.817 211.452 201.285 209.672C202.629 208.043 203.261 207.027 204.348 205.217C205.175 203.84 205.599 203.043 206.297 201.597C207.018 200.106 207.968 197.698 207.968 197.698L208.803 195.192C208.803 195.192 205.587 194.63 203.513 194.357C201.453 194.086 200.283 194.065 198.222 193.8C195.491 193.449 193.986 193.077 191.261 192.686C189.632 192.453 188.728 192.052 187.084 192.129C185.869 192.187 185.105 192.135 184.021 192.686C183.127 193.141 182.745 193.614 182.072 194.357Z" fill="#EABA8C"/>
<path d="M185.97 59.027L181.793 56.7994L177.895 54.8502L173.161 53.7363H168.427L164.25 54.8502L157.567 59.027L149.492 65.9884L141.417 75.7344L133.62 86.8727L126.937 96.0617L121.925 104.694L118.862 111.377L116.077 118.895L114.685 126.692L114.128 131.704V138.109L117.47 141.172L118.862 143.956L121.925 148.69L126.102 152.867L131.114 156.487L137.24 159.828L142.252 160.664L149.492 162.891L155.34 164.284L158.96 167.347L164.807 172.359H169.541L175.389 170.967L181.793 166.79L188.198 160.664L192.374 155.651L197.387 150.361L202.956 145.07L208.525 137.273L211.866 128.641V118.895L210.196 111.377L208.525 103.859L206.019 95.2264L201.842 84.645L197.387 74.6206L191.261 65.4315L185.97 59.027Z" fill="#F9D9AA"/>
<path d="M214.373 111.377C213.879 110.004 212.702 108.035 212.702 108.035C212.702 108.035 212.148 109.883 212.145 111.098C212.142 111.975 212.177 112.485 212.423 113.326C212.697 114.259 213.273 114.618 213.537 115.554C213.922 116.914 213.153 117.813 213.537 119.174C213.802 120.11 214.651 121.401 214.651 121.401C214.651 121.401 215.114 119.209 215.208 117.781C215.28 116.696 215.313 116.079 215.208 114.997C215.067 113.553 214.863 112.742 214.373 111.377Z" fill="#F4C692"/>
<path d="M172.916 100.9C172.699 101.63 172.338 102.354 172.916 102.85C173.412 103.274 173.969 103.058 174.587 102.85C175.247 102.627 175.386 102.101 175.979 101.736C176.685 101.302 177.174 101.243 177.928 100.9C179.257 100.297 179.965 99.882 181.27 99.2296C182.357 98.6859 182.976 98.3992 184.055 97.8373C185.263 97.2075 185.842 96.6458 187.118 96.1665C187.859 95.8881 188.088 95.7184 189.067 95.6096L191.573 95.3312C191.573 95.3312 193.266 95.2797 194.357 95.3312C195.335 95.3772 195.896 95.4596 196.864 95.6096C197.646 95.731 198.027 95.7889 198.813 95.8881C199.46 95.9698 200.483 96.1665 200.483 96.1665L199.648 95.6096C199.648 95.6096 198.472 95.0721 197.699 94.7743C196.736 94.4033 196.184 94.2247 195.193 93.9389C194.331 93.6905 193.838 93.5886 192.965 93.382C191.99 93.1509 191.455 92.9441 190.459 92.8251C189.271 92.6831 188.584 92.6875 187.396 92.8251C186.06 92.9798 185.332 93.2406 184.055 93.6604C182.942 94.026 182.339 94.2953 181.27 94.7743C180.16 95.2715 179.543 95.5676 178.485 96.1665C177.593 96.672 177.105 96.9797 176.258 97.5588C175.36 98.1727 174.755 98.4192 174.03 99.2296C173.507 99.814 173.14 100.149 172.916 100.9Z" fill="#562E22"/>
<path d="M121.368 110.263C119.45 113.76 116.913 119.452 116.913 119.452L117.191 108.592L132.228 85.7589L141.417 73.5068L157.289 57.0779L168.427 54.2933L176.781 55.4072L182.072 57.9133C182.072 57.9133 179.706 57.4866 178.173 57.3564C175.898 57.1629 174.581 56.9993 172.326 57.3564C170.186 57.6951 169.012 58.1417 167.035 59.0271C164.172 60.3089 162.824 61.5519 160.352 63.4824C156.897 66.1804 155.274 68.0803 152.277 71.2792C149.164 74.6017 147.738 76.7472 144.758 80.1898C141.23 84.2663 139.065 86.3881 135.569 90.4927C132.563 94.0227 130.768 95.9247 128.051 99.6818C125.187 103.642 123.719 105.978 121.368 110.263Z" fill="#F4CB9D"/>
<path d="M147.544 101.128C147.852 101.626 148.081 101.995 147.821 102.52C147.647 102.871 147.63 102.935 147.265 103.076C146.656 103.312 146.246 103.076 145.594 103.076C144.941 103.076 144.568 102.9 143.923 102.798C143.244 102.691 142.912 102.715 142.252 102.52C141.393 102.264 140.897 102.169 140.025 101.963C139.049 101.732 138.497 101.623 137.519 101.406C136.54 101.188 136.009 100.963 135.012 100.849C133.932 100.725 133.313 100.633 132.228 100.57C131.245 100.513 130.706 100.59 129.722 100.57C128.521 100.546 126.659 100.849 126.659 100.849L123.596 100.57L124.71 99.4565C124.71 99.4565 126.498 98.3831 127.773 98.0642C128.623 97.8515 129.126 97.8549 130 97.7858C131.518 97.6657 132.376 97.7858 133.899 97.7858C135.095 97.7858 135.766 97.7358 136.962 97.7858C138.929 97.8681 140.056 97.8931 141.974 98.3427C142.745 98.5234 143.17 98.6541 143.923 98.8996C144.806 99.1877 145.38 99.2161 146.151 99.735C146.789 100.164 147.138 100.474 147.543 101.127L147.544 101.128Z" fill="#562E22"/>
<path d="M185.413 61.5331C184.129 60.1003 182.072 57.9131 182.072 57.9131L194.045 57.0778L206.019 81.5819L209.917 101.352L209.082 110.541C209.082 110.541 207.981 108.89 207.411 107.757C205.989 104.927 205.014 102.983 204.07 99.9601C202.973 96.4477 202.307 94.4919 201.007 91.0495C199.887 88.0835 199.266 86.4125 197.944 83.5311C196.929 81.3212 196.262 79.8507 195.159 77.6835C193.77 74.9525 193.408 73.341 191.818 70.7221C190.518 68.5825 190.292 67.6857 188.755 65.7099C187.429 64.0064 186.854 63.1406 185.413 61.5331Z" fill="#F4CB9D"/>
<ellipse cx="194.881" cy="125.021" rx="15.5936" ry="18.3781" fill="url(#paint0_radial)" fill-opacity="0.42"/>
<ellipse cx="134.734" cy="132.54" rx="16.7074" ry="18.0997" fill="url(#paint1_radial)" fill-opacity="0.42"/>
<ellipse cx="202.661" cy="118.479" rx="3.89839" ry="2.22765" transform="rotate(-21.0997 202.661 118.479)" fill="#FEDDB2"/>
<ellipse cx="128.054" cy="128.593" rx="3.89839" ry="2.22765" transform="rotate(22.9637 128.054 128.593)" fill="#FDDCB1"/>
<path d="M149.214 112.769C149.702 113.61 150.046 114.066 150.328 114.997C150.488 115.528 150.606 116.389 150.606 116.389L146.429 116.111L130.836 114.161L125.267 112.212C125.267 112.212 124.719 111.457 124.988 111.098C125.823 109.985 126.276 109.665 127.216 108.871C128.23 108.014 128.799 107.485 130 106.922C131.028 106.44 131.671 106.305 132.785 106.086C133.964 105.855 134.648 105.85 135.848 105.808L135.913 105.806C136.634 105.78 137.059 105.765 137.797 105.808C138.672 105.858 139.163 105.927 140.025 106.086C141.244 106.312 141.959 106.409 143.088 106.922C144.022 107.346 144.489 107.706 145.315 108.314C146.123 108.908 146.578 109.254 147.265 109.985C148.173 110.952 148.548 111.621 149.214 112.769Z" fill="#CF9D6C"/>
<path d="M201.007 96.6186C200.613 96.3326 200.338 96.2582 199.893 96.0617C197.961 95.2085 194.977 94.9658 191.818 95.2263C190.053 95.3718 189.062 95.5664 187.362 96.0617C183.813 97.0963 179.009 100.517 179.009 100.517C179.009 100.517 176.877 100.887 177.059 102.188C177.141 102.768 177.078 103.349 177.616 103.58C178.323 103.883 178.369 102.614 179.009 102.188C180.04 101.5 182.072 101.352 182.072 101.352L184.856 100.239H189.311C191.051 100.239 192.04 100.029 193.767 100.239C194.868 100.372 195.205 100.774 196.273 101.074C196.935 101.26 197.54 101.824 198.222 101.909C198.654 101.963 198.904 101.963 199.336 101.909C200.018 101.824 200.4 101.399 201.007 101.074C201.352 100.889 201.891 100.835 202.12 100.517C202.502 99.9876 201.842 99.2203 201.842 98.5678C201.842 98.1328 202.004 97.8579 201.842 97.454C201.671 97.0256 201.38 96.89 201.007 96.6186Z" fill="#F4CB9D"/>
<path d="M121.925 112.212C122.4 112.107 124.709 111.934 125.266 110.82C125.515 110.322 130.279 106.643 133.342 106.086C135.083 105.77 138.075 105.746 139.468 106.086C142.173 106.747 145.037 108.035 145.037 108.035C145.037 108.035 146.986 109.985 148.378 109.985C148.946 109.985 147.242 103.593 146.708 103.354C146.006 103.039 144.48 102.745 143.923 102.745C142.683 102.745 141.974 102.466 141.974 102.466L139.468 101.909C139.468 101.909 138.29 101.888 136.683 101.352C135.012 100.796 133.419 100.517 131.949 100.517L129.722 100.517L128.608 100.517C127.931 100.517 127.091 100.749 126.659 100.796C125.975 100.87 125.6 101.038 124.988 101.352C124.639 101.532 123.317 102.188 125.545 102.466C126.192 102.547 124.999 102.701 124.988 103.354C124.981 103.788 122.327 107.072 122.482 107.478C122.646 107.91 116.913 113.326 121.925 112.212Z" fill="#F4CB9D"/>
<path d="M173.996 109.149C173.683 110.213 173.439 111.934 173.439 111.934V112.769L176.502 111.934L186.248 109.149L199.336 103.58C199.336 103.58 198.486 102.206 197.665 101.631C196.987 101.155 196.489 101.093 195.716 100.795C194.753 100.424 194.206 100.227 193.21 99.9601L193.143 99.9423C192.113 99.6661 191.507 99.5035 190.425 99.4032C189.451 99.3128 188.898 99.1248 187.919 99.1248C186.832 99.1248 186.217 99.2971 185.135 99.4032C184.031 99.5114 183.406 99.6221 182.35 99.9601C181.33 100.287 180.727 100.468 179.844 101.074C178.957 101.683 178.378 102.261 177.618 103.021L177.616 103.023C177.073 103.567 177.004 103.833 176.502 104.415C175.892 105.124 175.57 105.55 175.11 106.365C174.534 107.385 174.327 108.026 173.996 109.149Z" fill="#CF9D6C"/>
<path d="M223.84 194.357L210.474 190.18L207.968 199.369L204.627 206.052L199.057 213.292L192.653 218.304L182.072 222.481L173.996 224.152H158.124L150.049 221.924L87.6748 199.369L85.4472 200.483L84.0549 203.268L82.9411 206.609V211.343L81.2703 216.633L80.435 232.505L80.1565 239.745L93.8009 240.302L107.724 270.097L108.559 275.945L109.394 282.628L111.065 290.424L111.622 294.601L113.014 299.613V312.423L110.508 350.014L109.394 367H231.915L224.119 321.89L222.726 316.878L204.07 275.109L212.702 262.3L222.726 246.707L252.521 248.656L253.635 241.973L254.47 236.125L255.306 230.278L255.584 221.924V216.633L254.47 212.735L253.078 209.115L250.015 205.495L245.838 202.432L236.649 198.255L223.84 194.357Z" fill="#EDAFB8"/>
<path d="M234.421 197.42C231.06 196.076 226.625 194.914 226.625 194.914C226.625 194.914 227.691 197.576 228.574 199.091C229.851 201.282 230.817 202.373 231.915 204.66C232.824 206.553 233.145 207.699 233.865 209.672C234.807 212.257 235.491 213.67 236.092 216.355C236.785 219.449 236.939 221.26 236.928 224.43C236.916 227.492 236.382 229.179 236.092 232.227C235.7 236.354 235.257 242.808 235.257 242.808L253.356 244.758C253.356 244.758 253.914 242.221 254.192 240.581C254.65 237.881 254.758 236.344 255.027 233.619C255.306 230.797 255.495 229.214 255.584 226.379C255.645 224.423 255.584 223.325 255.584 221.367C255.584 219.41 255.857 218.293 255.584 216.355C255.349 214.683 255.328 213.764 254.749 212.178C254.215 210.716 253.656 209.859 252.8 208.558C251.911 207.208 251.489 206.584 250.293 205.495C249.087 204.397 248.054 203.579 246.674 202.711C245.027 201.675 243.986 201.573 242.218 200.761C239.557 199.54 237.206 198.534 234.421 197.42Z" fill="#F1A8B2"/>
<path d="M252.8 249.213L253.356 244.758L217.992 239.745L196.551 265.085L201.007 274.274L208.246 262.857L214.929 252.833L219.385 245.314L235.257 246.985L252.8 249.213Z" fill="#F29BA8"/>
<ellipse cx="190.22" cy="244.949" rx="20.3273" ry="13.6444" transform="rotate(-26.8499 190.22 244.949)" fill="#F1A8B2"/>
<path d="M210.474 189.902L214.929 191.572C214.929 191.572 214.151 194.648 213.537 196.585L213.482 196.759C212.351 200.329 211.689 202.417 209.917 205.774C208.594 208.281 207.754 209.657 206.019 211.9C204.089 214.393 202.815 215.662 200.45 217.747L200.315 217.866C198.064 219.851 196.727 221.029 194.045 222.481C191.292 223.971 190.566 224.15 187.641 225.266C185.678 226.014 183.523 226.6 181.515 227.215C176.082 228.877 172.714 228.736 167.035 228.607C162.437 228.503 159.853 228.1 155.34 227.215C152.26 226.611 150.469 226.402 147.543 225.266V227.215L144.48 231.113L140.581 235.568L136.683 239.745L134.177 243.087L132.228 246.428L130.279 251.719L128.608 255.896L124.988 253.947L143.923 223.595L145.872 220.532C145.872 220.532 151.39 222.439 155.061 223.038C158.61 223.617 160.656 223.653 164.25 223.595C168.405 223.528 170.721 223.086 174.832 222.481C178.883 221.884 181.255 221.843 185.135 220.532C189.558 219.037 192.023 217.821 195.716 214.963C198.817 212.562 200.359 210.887 202.677 207.723C204.95 204.622 205.875 202.615 207.411 199.091C208.922 195.623 210.474 189.902 210.474 189.902Z" fill="#F29BA8"/>
<path d="M116.077 307.132L182.907 319.105L190.425 328.294L107.167 327.181L99.0916 270.097H112.179L116.077 307.132Z" fill="#F29BA8"/>
<path d="M132.506 271.211L160.074 263.136L167.313 291.817L134.456 285.691L132.506 271.211Z" fill="#F1A8B2"/>
<path d="M167.87 302.398L130.836 296.829L121.647 293.487V304.347L171.49 313.258L167.87 302.398Z" fill="#F1A8B2"/>
<path d="M155.618 230.278C153.269 228.762 151.422 228.193 148.657 228.607C143.138 229.433 144.494 236.346 140.86 240.581C138.757 243.032 136.461 243.542 135.012 246.428C134.007 248.432 133.593 249.756 133.62 251.997C133.655 254.887 134.096 256.903 136.126 258.959C139.565 262.441 143.82 259.7 148.657 258.959C153.62 258.198 158.799 259.617 160.909 255.06C162.585 251.441 159.769 248.941 158.96 245.036C157.76 239.25 160.584 233.482 155.618 230.278Z" fill="#F1A8B2"/>
<path d="M109.673 360.317V343.331L176.224 336.091L222.169 312.144L229.966 355.305L109.673 360.317Z" fill="#F1A8B2"/>
<path d="M230 356L109.5 350.5L109 382.156C109 382.156 117.377 386.176 123 388.078C131.702 391.021 136.892 391.813 146 393.013C156.848 394.442 163.08 394.686 174 394C184.857 393.318 182 394.617 201.5 389.558C221 384.5 233.5 376.5 233.5 376.5L230 356Z" fill="#F1A8B2"/>
<path d="M231 362.5L109.5 359.5L109 379.5L232.5 372L231 362.5Z" fill="#EDAFB8"/>
<path d="M80.1565 266.199L81.2703 239.745H105.496L107.167 269.819L108.281 277.894L109.673 286.247L111.344 292.93L112.179 298.778V302.955V313.815H118.305L128.329 315.207L140.86 317.156L157.289 319.941L177.895 323.839L190.425 324.396L208.525 324.953L220.22 321.89L225.511 322.447L228.852 322.725L230.802 323.839L231.637 325.51L231.358 327.738L231.637 329.13L232.751 330.801L233.586 331.914V333.585L232.751 334.699L231.358 336.37V337.762L231.915 339.154L232.194 341.382L230.802 342.774L229.131 343.888L228.852 345.002V346.394L227.182 348.065L225.511 350.014L222.726 351.128L219.385 351.685H213.259L206.576 350.571L199.614 349.457L193.767 347.508H188.198L175.667 348.343L155.897 349.457L131.114 350.014L109.673 350.571C109.673 350.571 105.08 350.146 102.155 349.736C98.9855 349.291 97.0314 349.579 94.0793 348.343C92.4618 347.666 91.4743 347.3 90.1809 346.116C88.42 344.504 87.9453 343.064 87.1179 340.825C86.2752 338.544 86.4166 337.095 86.0041 334.699C84.8484 327.985 83.498 317.435 83.498 317.435L81.2703 292.93L80.1565 266.199Z" fill="#FEDFB3"/>
<path d="M105.218 281.235C103.828 275.274 101.876 265.92 101.876 265.92L106.331 266.199L107.724 272.882L108.559 279.008L109.951 287.361L111.344 293.209L112.179 297.943V306.575V313.815L107.724 314.929V305.183C107.724 299.854 108.437 296.819 107.724 291.538C107.169 287.435 106.158 285.268 105.218 281.235Z" fill="#F4C2A0"/>
<path d="M86.561 260.073L89.6241 235.29L100.762 242.53L102.433 267.034L103.547 273.717L105.218 281.792L107.167 287.361L107.724 291.817L108.002 295.158L107.724 301.284V307.967V314.929L104.661 316.042L101.876 317.435L99.37 319.941L97.9778 323.282L118.027 325.232L145.037 327.459L175.11 329.13L219.106 321.612C219.106 321.612 221.816 321.451 223.562 321.612C225.514 321.791 226.402 321.661 228.295 322.168C229.193 322.409 230.146 322.624 230.802 323.282C231.386 323.869 231.915 324.118 231.915 325.232V328.295C231.915 329.297 233.138 330.182 233.586 331.079C233.987 331.881 234.205 332.412 234.143 333.307C234.025 335.001 233.308 334.699 232.472 336.37C232.118 337.078 232.034 337.822 232.194 338.597C232.437 339.774 232.816 340.633 232.194 341.66C231.833 342.256 231.391 342.708 231.08 343.331C230.802 343.888 230.523 344.167 229.966 344.723C229.428 345.262 228.852 346.394 228.852 346.394L227.46 346.673L224.676 346.951H220.499H209.36L193.767 343.331H170.655H138.354H118.027C118.027 343.331 91.2948 344.723 89.6241 343.331C87.9533 341.939 88.4936 339.454 87.9533 336.927C87.1723 333.272 86.561 327.459 86.561 327.459V319.941L87.9533 306.575V284.298L86.561 260.073Z" fill="#F9D9AA"/>
<path d="M87.3964 341.382C86.5493 338.119 87.3964 332.75 87.3964 332.75C87.3964 332.75 87.7446 335.294 87.9533 336.927C88.0645 337.796 88.123 338.284 88.2318 339.154C88.3405 340.024 88.1962 340.563 88.5102 341.382C88.7373 341.974 88.857 342.37 89.3456 342.774C89.8756 343.213 90.3439 343.187 91.0163 343.331C92.2923 343.605 93.0529 343.331 94.3578 343.331H98.8131H108.002H118.862H136.962H153.669H164.529H172.604H180.401H186.527H189.868C189.868 343.331 192.27 343.054 193.767 343.331C194.545 343.475 196.066 343.96 196.83 344.166C198.663 344.663 198.594 344.6 200.45 345.002C202.076 345.354 203.01 345.447 204.627 345.837C205.832 346.128 206.469 346.454 207.69 346.673C208.872 346.884 209.553 346.888 210.753 346.951C212.382 347.036 213.298 346.951 214.93 346.951C217.757 346.951 219.345 347.073 222.169 346.951C224.786 346.838 229.879 344.34 228.852 346.394C228.574 346.951 227.971 347.212 227.46 347.786C226.997 348.307 226.854 348.702 226.346 349.179C225.95 349.551 225.975 349.73 225.511 350.014C224.804 350.446 223.786 350.854 223.005 351.128C221.536 351.644 220.93 351.494 219.385 351.685C217.226 351.952 215.981 351.888 213.816 351.685C211.947 351.509 210.933 351.438 209.082 351.128C207.019 350.782 204.07 350.293 204.07 350.293C204.07 350.293 201.049 349.903 199.336 349.457C197.672 349.024 197.684 348.664 195.994 348.343C195.027 348.16 193.636 347.565 192.653 347.508C190.587 347.388 187.362 347.786 187.362 347.786L180.401 348.065L170.376 348.622L161.187 349.179C161.187 349.179 155.257 349.84 151.441 350.014C147.096 350.212 144.653 350.014 140.303 350.014C136.28 350.014 134.022 349.896 130 350.014C126.19 350.126 124.065 350.471 120.254 350.571C116.993 350.657 115.161 350.691 111.901 350.571C108.85 350.459 107.144 350.292 104.104 350.014C101.162 349.745 99.4584 349.867 96.5855 349.179C94.5789 348.698 93.3183 348.609 91.5733 347.508C90.3359 346.727 89.6229 346.204 88.7887 345.002C87.9251 343.758 87.777 342.848 87.3964 341.382Z" fill="#F4C2A0"/>
<path d="M171.769 322.725L178.452 323.839L179.844 326.624L182.35 330.522L185.413 333.585L190.147 337.205L193.488 339.433L196.551 340.825H199.057L201.285 339.99L204.905 337.484L208.803 334.421L213.537 329.687L216.879 325.788L219.942 321.612H221.612H222.448L221.334 323.561L217.992 327.738C217.992 327.738 215.84 330.331 214.373 331.914C212.7 333.719 211.729 334.705 209.917 336.37C208.441 337.726 207.68 338.588 206.019 339.711C204.488 340.747 203.588 341.332 201.842 341.939C200.17 342.52 199.156 342.836 197.387 342.774C195.221 342.698 194.134 341.841 192.096 341.104C190.444 340.506 189.532 340.13 187.919 339.433C186.044 338.622 184.899 338.317 183.185 337.205C181.503 336.114 180.734 335.252 179.287 333.864C177.788 332.426 176.989 331.568 175.667 329.965C174.629 328.707 173.161 326.624 173.161 326.624L171.769 322.725Z" fill="#F2CC9B"/>
<path d="M196.273 39.8135C193.426 39.0959 188.755 39.8135 188.755 39.8135C188.755 39.8135 186.357 37.1044 184.578 35.6366C182.017 33.5243 180.321 32.6382 177.338 31.1813C173.815 29.4607 171.705 28.656 167.87 27.8398C164.346 27.0897 162.284 27.0396 158.681 27.0045C154.645 26.9651 152.361 27.1806 148.378 27.8398C143.519 28.6443 140.853 29.559 136.221 31.1487L136.126 31.1813C131.102 32.9056 128.247 33.9065 123.596 36.472C117.54 39.8124 114.447 42.3305 109.394 47.0534C105.344 50.8398 103.242 53.19 99.9269 57.6347C96.4257 62.3288 94.5753 65.1226 92.1301 70.4437C89.8328 75.4432 88.8236 78.4288 87.6748 83.8096C86.534 89.1535 86.7159 92.2853 86.2826 97.7325C85.842 103.27 85.4472 111.934 85.4472 111.934C85.4472 111.934 82.2213 116.755 80.435 120.009C79.1477 122.354 78.2669 123.614 77.3719 126.135C76.5865 128.347 76.4082 129.675 75.9797 131.983C75.5192 134.463 75.2996 135.87 75.1443 138.387C75.0037 140.666 74.9062 141.964 75.1443 144.235C75.3289 145.995 75.3309 147.043 75.9797 148.69C76.7535 150.655 77.3719 153.145 77.3719 153.145C77.3719 153.145 78.2405 157.282 77.3719 159.828C76.6482 161.95 76.7444 162.095 76.2581 164.284C75.6683 166.937 75.0519 171.869 75.1443 174.586C75.2778 178.513 76.815 180.434 79.0427 183.497C81.1024 186.329 81.5488 187.117 82.3841 189.345C82.9781 190.929 83.2195 202.154 82.3841 203.824C81.7023 205.472 79.878 215.905 79.878 218.026C79.878 220.532 81.5488 226.658 82.3841 228.886C83.051 230.664 86.0041 236.961 86.0041 236.961C86.0041 236.961 84.7141 239.071 84.3334 240.581C83.8281 242.584 83.498 243.248 83.498 245.314C83.498 246.619 83.498 247.821 84.3334 249.213C85.6117 251.343 85.5079 252.963 86.8395 255.06C88.6528 257.917 90.4294 258.947 92.9655 261.186C96.2261 264.066 98.4728 265.161 101.876 267.869C104.534 269.985 106.025 271.175 108.559 273.439C110.338 275.027 111.885 275.515 113.014 277.615C114.014 279.475 114.476 280.823 114.128 282.906C113.824 284.73 112.937 285.552 111.901 287.083C110.777 288.744 109.673 289.032 108.559 290.981C107.447 292.928 112.127 290.599 114.128 289.589C115.993 288.648 118.305 286.248 118.305 286.248C118.305 286.248 117.311 289.353 116.077 290.981C114.436 293.148 112.631 293.459 110.508 295.158C109.182 296.22 108.559 296.55 107.167 297.943C105.775 299.335 109.165 299.044 110.508 299.613C113.011 300.674 114.488 301.275 117.191 301.563C120.616 301.927 122.642 301.381 125.922 300.497L126.102 300.449C130.143 299.361 132.621 298.658 135.848 295.994C138.783 293.571 140.434 291.788 141.695 288.197C142.603 285.613 142.584 283.973 142.531 281.235C142.47 278.143 142.234 276.331 141.139 273.439C140.536 271.847 139.189 269.54 139.189 269.54C139.189 269.54 141.23 268.53 142.531 267.869C145.047 266.593 146.98 266.561 148.935 264.528C150.022 263.398 152.731 261.186 151.163 261.186C149.771 261.186 148.522 262.458 146.708 262.857C144.581 263.325 143.312 263.263 141.139 263.136C138.711 262.993 137.231 263.017 135.012 262.022C132.889 261.069 131.468 260.403 130.279 258.402C129.363 256.86 129.027 255.735 129.165 253.947C129.27 252.575 129.831 251.906 130.279 250.605C131.107 248.198 131.361 246.753 132.506 244.479C133.877 241.758 135.03 240.43 136.962 238.075C138.669 235.993 139.949 235.111 141.695 233.062C144.885 229.32 146.358 226.948 148.935 222.759C150.314 220.52 152.277 216.912 152.277 216.912L148.1 207.444L146.151 199.926L143.645 191.015L141.138 191.294H138.075L134.456 190.737V187.395L136.126 186.839H137.797L138.075 185.725L138.632 183.497L139.189 182.105H141.139V180.156L141.695 177.371L142.531 176.257L158.124 175.422C158.124 175.422 153.597 173.522 152.834 172.08C152.579 171.6 152.103 170.517 151.72 170.131C151.167 169.575 150.194 168.254 149.492 167.904C148.383 167.349 147.86 166.968 146.708 166.511C144.66 165.701 144.227 166.523 142.531 165.119C141.611 164.358 139.539 165.147 139.189 164.005C138.983 163.332 137.738 162.554 137.24 162.056C136.962 161.777 136.126 161.221 136.126 161.221L138.075 159.828C138.075 159.828 134.402 158.287 131.393 156.487C129.088 155.108 128.407 154.351 126.38 152.588C123.983 150.505 122.688 149.485 121.09 146.741C120.061 144.975 119.918 144.111 118.584 142.564C117.674 141.51 117.866 140.998 117.191 139.779C116.654 138.809 115.313 135.68 114.964 133.932C114.685 132.54 114.322 131.194 114.964 127.527C115.482 124.565 115.871 122.918 116.634 120.009C117.56 116.483 118.091 114.494 119.419 111.098C122.456 103.335 125.673 99.6693 130.279 92.7202C134.064 87.0089 136.31 83.876 140.582 78.5189C145.001 72.9762 147.3 69.6331 152.555 64.8746C156.408 61.3854 158.298 58.6981 163.137 56.7993C166.234 55.5841 168.164 55.083 171.49 55.1286C174.604 55.1712 176.356 55.7476 179.287 56.7993C181.439 57.5715 182.661 58.0601 184.578 59.3054C187.222 61.0233 188.363 62.4885 190.425 64.8746C193.998 69.009 195.115 72.0155 197.665 76.8482C200.824 82.8343 202.242 86.3858 204.627 92.7202C205.923 96.164 206.807 98.0587 207.69 101.631C208.509 104.946 209.082 110.263 209.082 110.263L210.753 113.883C210.753 113.883 211.31 110.263 211.031 108.592C210.87 107.627 210.891 106.692 211.31 105.808C211.637 105.117 211.667 105.111 212.41 104.975L212.423 104.972C213.671 104.743 213.302 105.895 213.816 106.922C214.094 107.478 214.885 109.511 215.765 111.934C216.341 113.521 216.63 114.98 216.6 116.668C216.572 118.251 216.541 119.898 216.043 121.401C215.23 123.855 215.308 125.245 214.094 127.527C213.06 129.471 211.441 129.613 210.753 131.704C210.339 132.961 209.674 134.419 209.082 135.603C207.69 138.387 206.831 139.757 204.905 142.564C202.599 145.925 201.041 146.86 198.222 149.804C194.072 154.137 188.198 160.942 188.198 160.942L190.425 184.889L202.12 187.674C202.12 187.674 204.42 184.049 206.576 180.991C209.548 176.775 214.094 170.131 214.094 170.131C214.094 170.131 219.8 164.1 222.448 159.55C225.048 155.082 226.093 152.283 227.46 147.298C228.883 142.107 229.409 133.653 229.409 133.653C229.409 133.653 228.672 125.253 227.46 120.009C226.67 116.589 225.571 115.125 224.954 111.377L224.397 101.631C224.109 97.1697 223.562 90.2141 223.562 90.2141C223.562 90.2141 222.312 80.949 220.777 75.1775L220.758 75.1051C219.533 70.4973 218.83 67.8559 216.879 63.4823C214.834 58.9002 213.37 56.4417 210.474 52.344C208.112 49.0011 206.945 46.879 203.791 44.2688C201.162 42.0926 199.582 40.6476 196.273 39.8135Z" fill="#6D3328"/>
<path d="M199.057 174.308L190.425 184.889L189.311 174.029L188.198 160.942L191.818 156.208L197.108 150.639L202.12 146.462C202.12 146.462 203.152 149.819 203.513 152.031C204.214 156.324 204.305 158.893 203.513 163.17C202.66 167.776 199.057 174.308 199.057 174.308Z" fill="#3E1C12"/>
<path d="M217.714 153.702C218.679 150.323 219.942 146.741 219.942 146.741C219.942 146.741 218.965 151.242 218.271 155.094C217.391 159.985 215.486 163.17 215.486 163.17C215.486 163.17 216.27 158.76 217.714 153.702Z" fill="white"/>
<path d="M211.031 111.098L210.753 113.883L209.36 110.263L208.803 107.478L208.247 103.302L207.133 98.8462L204.905 92.9986L202.121 86.3157L199.614 80.4681L196.551 74.6205L193.488 69.0514L190.147 64.5961L186.527 60.6977L182.072 57.6346C182.072 57.6346 186.385 58.2505 188.755 59.5838C191.569 61.1677 192.546 62.9411 194.602 65.4314C198.846 70.5711 199.803 74.4544 202.677 80.4681C205.578 86.536 207.606 89.8474 209.36 96.3401C210.228 99.5519 211.031 104.694 211.031 104.694V107.478V111.098Z" fill="#421F1D"/>
<path d="M218.549 133.375C217.788 129.81 215.765 124.464 215.765 124.464L215.208 125.578L214.373 127.249L212.98 129.198L211.31 130.312L208.803 136.438L205.462 141.729L202.12 146.184C202.12 146.184 203.695 151.4 203.234 153.702C202.399 157.879 204.083 161.928 203.513 163.448C202.677 165.676 200.288 170.319 197.944 174.308C195.276 178.847 190.425 184.889 190.425 184.889L202.12 187.674C202.12 187.674 203.556 185.227 205.183 182.94C209.12 177.41 211.31 174.587 215.208 168.739C216.356 167.017 215.229 165.501 215.486 163.448C215.805 160.909 216.328 159.543 216.879 157.044C217.31 155.086 217.433 153.957 217.992 152.032C218.607 149.917 219.769 148.936 219.942 146.741C220.045 145.435 219.781 144.704 219.663 143.399C219.309 139.476 219.372 137.227 218.549 133.375Z" fill="#4C241A"/>
<path d="M195.437 45.9395C192.41 45.0555 187.362 45.9395 187.362 45.9395C187.362 45.9395 185.047 43.3353 183.464 41.7626C181.388 39.7002 180.436 38.2015 177.895 36.7504C174.228 34.6562 171.494 35.1201 167.313 34.5227C160.205 33.507 156.086 33.3124 148.935 33.9658C140.241 34.7603 135.499 36.4993 127.216 39.2565C120.414 41.5206 110.23 46.2179 110.23 46.2179C110.23 46.2179 106.414 50.0457 104.104 52.6224C102.198 54.7475 101.086 55.9107 99.3699 58.1916C97.0483 61.2772 95.9381 63.1605 94.0793 66.5453C91.9478 70.4264 90.6115 72.6051 89.3455 76.8482C88.5833 79.4028 88.473 80.9164 87.9532 83.5311C87.5 85.8112 87.159 87.0761 86.8394 89.3787C86.3601 92.8322 86.3518 94.8034 86.2825 98.2893C86.25 99.9201 86.2825 102.466 86.2825 102.466C86.2825 102.466 92.6288 97.2834 96.5854 93.834C102.618 88.575 105.671 85.2622 111.622 79.9112C121.314 71.1965 126.643 66.1534 136.962 58.1916C143.437 53.1952 146.195 48.5455 153.947 45.9395C159.445 44.0913 162.943 43.6072 168.706 44.2687C173.217 44.7867 175.885 45.3845 179.844 47.6102C182.346 49.0173 185.691 52.0655 185.691 52.0655C185.691 52.0655 188.61 51.7141 190.425 52.0655C195.266 53.0028 196.511 56.8308 199.893 60.4192C204.592 65.4056 206.532 68.8308 210.196 74.6205C217.271 85.8007 224.675 105.251 224.675 105.251L222.726 84.6449C222.726 84.6449 218.45 75.6504 215.208 70.1652C211.74 64.297 205.462 55.6854 205.462 55.6854C203.921 53.3046 203.606 51.5262 201.564 49.5594C199.562 47.632 198.105 46.7184 195.437 45.9395Z" fill="#663024"/>
<path d="M132.506 43.7118C136.148 42.3031 142.252 41.4841 142.252 41.4841C142.252 41.4841 138.72 44.5178 136.126 45.9394C133.079 47.6093 131.664 47.3497 128.608 49.0025C124.664 51.1352 122.34 53.4124 118.862 56.2423C115.924 58.6328 114.81 60.4789 112.179 63.2037C108.931 66.5688 107.504 68.631 104.382 72.1144C102.175 74.5774 98.2562 77.9619 98.2562 77.9619C98.2562 77.9619 100.815 72.6156 102.712 69.3298C104.717 65.855 105.807 63.8564 108.281 60.6976C110.274 58.1519 111.941 56.3851 114.407 54.2931C117.677 51.5177 119.331 50.3244 123.039 48.1671C126.618 46.0845 128.644 45.2059 132.506 43.7118Z" fill="#6C3227"/>
<path d="M114.685 101.631C117.676 95.0779 123.596 85.4803 123.596 85.4803C123.596 85.4803 122.354 91.6176 121.368 95.5048C119.888 101.34 118.156 104.372 116.913 110.263C115.467 117.113 114.964 128.084 114.964 128.084C114.964 128.084 112.531 137.049 113.014 142.842C113.467 148.261 114.515 151.328 116.913 156.208C123.214 169.033 151.163 175.143 151.163 175.143L146.151 185.725L138.911 182.105C138.911 182.105 126.537 180.362 119.976 176.257C114.239 172.668 107.724 164.005 107.724 164.005C107.724 164.005 109.888 168.018 111.065 170.688C112.745 174.496 114.685 180.713 114.685 180.713C114.685 180.713 110.188 178.341 107.724 176.257C101.8 171.247 99.3112 166.796 97.4208 159.271C95.8575 153.049 96.2775 149.156 97.4208 142.842C99.0936 133.605 104.161 129.809 107.724 121.123C110.791 113.644 111.328 108.984 114.685 101.631Z" fill="#663024"/>
<path d="M178.452 52.6225C180.641 54.3437 182.907 58.1917 182.907 58.1917L180.958 57.0778L177.338 55.6855L173.718 54.8502H169.82L165.921 55.6855L161.744 57.0778L158.403 59.3055L156.175 61.5331L153.391 64.0392L149.771 67.3807L145.594 71.836L140.86 77.9621L135.012 85.7589L128.329 95.2264L124.153 101.631L121.09 107.2L123.596 98.8463C123.596 98.8463 129.018 88.2264 132.785 81.582C135.213 77.2988 136.476 74.8306 139.189 70.7222C142.569 65.6045 144.333 62.5412 148.657 58.1917C151.651 55.18 153.169 53.0406 157.011 51.2302C161.102 49.3021 163.922 48.8844 168.427 49.281C172.538 49.6429 175.207 50.0725 178.452 52.6225Z" fill="#56281B"/>
<path d="M114.963 135.046C114.546 133.454 114.407 130.869 114.407 130.869C114.407 130.869 113.635 133.05 113.293 134.489C113.012 135.672 112.864 136.343 112.736 137.552C112.555 139.256 112.619 140.242 112.731 141.931L112.736 142.007C112.88 144.202 113.116 145.425 113.571 147.576C113.85 148.892 114 149.635 114.407 150.918C115.434 154.163 116.383 155.905 118.305 158.715C120.304 161.637 121.771 163.061 124.431 165.398C127.309 167.926 129.868 168.297 133.063 170.41C136.813 172.889 146.708 175.7 146.708 175.7L157.846 181.27L162.301 174.03C162.301 174.03 146.094 164.544 135.569 158.715C133.398 157.512 132.054 157.045 130 155.652C128.272 154.479 127.36 153.725 125.823 152.31C124.918 151.476 124.44 150.977 123.596 150.082C122.696 149.131 122.121 148.648 121.368 147.576C120.39 146.183 120.962 146.458 119.976 145.07C119.484 144.378 118.026 142.007 118.026 142.007C117.595 141.3 117.52 140.818 117.191 140.058C116.34 138.092 115.507 137.118 114.963 135.046Z" fill="#461E19"/>
<path d="M87.1179 127.806C87.891 126.169 89.624 123.907 89.624 123.907C89.624 123.907 89.4556 126.318 89.0671 127.806C88.6845 129.271 88.0776 129.966 87.6748 131.426C87.38 132.495 86.9356 134.23 87.1179 135.324C87.3964 136.995 87.3111 136.528 87.3964 138.387C87.4511 139.582 87.7579 140.814 87.6748 142.007C87.5755 143.434 87.1179 145.627 87.1179 145.627C87.1179 145.627 85.5765 141.053 85.4472 139.501C85.1687 136.159 85.0281 137.226 85.4472 134.21C85.8029 131.65 86.0137 130.143 87.1179 127.806Z" fill="white"/>
<path d="M98.5346 223.595C101.186 219.964 102.177 217.596 104.661 213.849C107.077 210.203 111.065 204.66 111.065 204.66L116.634 206.609C116.634 206.609 115.601 212.137 114.407 215.52C113.66 217.633 112.823 218.663 112.179 220.81C111.418 223.344 111.114 224.848 111.065 227.493C110.993 231.374 112.235 233.437 113.014 237.239C113.55 239.851 113.719 241.347 114.407 243.922C115.543 248.177 115.948 250.783 118.305 254.504C119.914 257.044 121.114 258.304 123.317 260.351C126.096 262.933 128.017 264.016 131.293 265.864L131.392 265.92C134.316 267.57 137.13 266.889 139.189 269.54C139.876 270.424 140.119 271.027 140.582 272.046C140.965 272.892 141.091 273.404 141.417 274.274C141.743 275.144 142.033 275.599 142.252 276.502C142.485 277.458 142.471 278.025 142.531 279.008C142.603 280.202 142.531 280.875 142.531 282.071C142.531 283.049 142.647 283.605 142.531 284.577C142.356 286.046 141.827 286.776 141.417 288.197C141.073 289.388 141.107 290.137 140.582 291.26C139.635 293.28 138.383 293.991 136.683 295.437C135.557 296.395 134.894 296.913 133.62 297.664C132.279 298.456 131.46 298.792 130 299.335C128.516 299.887 127.621 300.002 126.102 300.449C125.013 300.769 124.422 301.022 123.317 301.284C122.03 301.59 121.298 301.798 119.976 301.841C118.331 301.895 117.431 301.493 115.799 301.284C114.929 301.173 114.419 301.228 113.571 301.006C112.535 300.734 112.076 300.247 111.065 299.892C110.318 299.63 109.869 299.581 109.116 299.335C108.233 299.047 106.957 299.426 106.888 298.5C106.837 297.805 107.516 297.606 108.002 297.107C108.762 296.329 109.35 296.076 110.23 295.437C111.303 294.656 111.951 294.282 113.014 293.487C114.13 292.654 114.871 292.298 115.799 291.26C116.582 290.382 116.962 289.815 117.47 288.754C117.915 287.823 118.305 286.248 118.305 286.248C118.305 286.248 117.302 287.116 116.634 287.64C115.281 288.701 114.532 289.337 113.014 290.146C111.767 290.811 111.078 291.385 109.673 291.538C109.132 291.597 108.452 292.054 108.281 291.538C108.172 291.212 108.413 291.014 108.559 290.703C108.854 290.072 109.18 289.803 109.673 289.311C110.165 288.818 110.59 288.706 111.065 288.197C111.6 287.624 111.734 287.172 112.179 286.526C112.709 285.755 113.141 285.407 113.571 284.577L113.607 284.507C114.062 283.632 114.351 283.074 114.407 282.071C114.449 281.303 114.324 280.865 114.128 280.122C113.856 279.086 113.575 278.528 113.014 277.615C112.248 276.369 111.562 275.846 110.508 274.831C108.832 273.217 107.58 272.679 105.774 271.211C104.219 269.946 103.457 269.103 101.876 267.869C100.401 266.718 99.4976 266.176 97.9776 265.085C96.0161 263.677 92.9654 261.465 92.9654 261.465L90.7378 259.237C89.2154 257.715 88.0013 257.151 86.8394 255.339C85.9455 253.944 85.5985 253.216 84.8902 251.719C84.4742 250.84 84.0985 249.574 83.7764 248.656C83.3736 247.509 83.2957 246.528 83.2195 245.314C83.1028 243.457 83.5412 243.205 84.0548 241.416C84.5515 239.686 84.9516 238.7 86.004 237.239C87.1288 235.678 88.2498 235.244 89.6239 233.898C93.4235 230.175 95.3974 227.891 98.5346 223.595Z" fill="#56281B"/>
<path d="M94.2287 255.975C93.8714 255.323 93.2439 251.997 93.2439 251.997C93.2439 251.997 94.4049 253.762 94.6362 254.225C94.9146 254.782 95.1985 255.46 96.0285 255.896C96.7916 256.296 97.3341 256.743 97.9777 257.288C98.6537 257.86 99.0225 258.203 99.3496 258.521C99.9288 259.085 99.954 258.999 100.484 259.794C100.732 260.167 101.598 261.465 101.598 261.465C101.598 261.465 99.2061 260.309 98.2901 259.794C97.3303 259.255 96.7828 258.934 95.9945 258.203C95.1675 257.436 94.7538 256.934 94.2287 255.975Z" fill="#FFDEB3"/>
<path d="M77.6504 157.879C77.767 157.228 77.9289 156.208 77.9289 156.208C77.9289 156.208 80.0838 157.352 81.5488 157.879C83.2364 158.486 84.374 158.245 86.0041 158.993C88.32 160.055 89.2534 161.33 91.0164 163.17C95.0578 167.387 95.2385 171.256 98.2562 176.257C100.937 180.699 102.51 183.153 105.496 187.396C109.465 193.034 116.356 201.318 116.356 201.318L111.622 234.455C111.622 234.455 103.308 226.125 98.2562 220.532C94.6908 216.584 92.2113 214.711 89.3456 210.229C87.2497 206.951 86.1875 204.986 84.8903 201.318C83.8086 198.26 83.5408 196.431 82.9411 193.243C82.6966 191.943 82.7155 191.182 82.3842 189.902C82.1258 188.903 81.9693 188.338 81.5488 187.396C81.032 186.237 80.5956 185.657 79.8781 184.611C79.1766 183.589 78.6085 183.142 77.9289 182.105C77.3152 181.168 77.0311 180.603 76.5366 179.599C75.9122 178.33 75.4105 177.646 75.1443 176.257C74.8987 174.976 75.1095 174.22 75.1443 172.916C75.1909 171.173 75.1422 170.181 75.4228 168.46C75.5842 167.471 75.7721 166.935 75.9797 165.954C76.2093 164.869 76.307 164.255 76.5366 163.17C76.7442 162.189 76.8859 161.645 77.0935 160.664C77.3232 159.579 77.455 158.971 77.6504 157.879Z" fill="#5D2B20"/>
<path d="M143.645 263.414C142.336 263.468 141.605 263.273 140.303 263.136C138.667 262.963 137.696 263.074 136.126 262.579C135.105 262.256 134.544 262.006 133.62 261.465C132.682 260.915 132.183 260.541 131.392 259.794C130.664 259.106 130.17 258.742 129.722 257.845C129.321 257.043 129.245 256.511 129.165 255.617C129.067 254.529 129.162 253.889 129.443 252.833C129.719 251.798 130.171 251.326 130.557 250.327C130.929 249.365 131.076 248.802 131.392 247.821C131.847 246.413 132.132 245.632 132.506 244.201C132.9 242.694 133.026 241.827 133.342 240.302C133.679 238.674 133.947 237.773 134.177 236.125C134.718 232.248 134.564 229.997 134.177 226.101C133.691 221.218 133.005 218.483 131.392 213.849C129.123 207.324 126.766 204.072 123.039 198.255C119.519 192.762 117.171 189.919 113.014 184.889C109.188 180.26 106.547 178.094 102.711 173.473C99.2946 169.355 98.4745 166.031 94.3578 162.613C91.6171 160.338 89.4571 159.953 86.561 157.879C83.9234 155.99 80.1565 152.588 80.1565 152.588L75.7012 148.133L77.0935 152.032L77.9288 156.208L80.1565 157.322C80.1565 157.322 83.7169 159.206 85.7256 160.942C88.9388 163.719 90.1508 165.89 92.687 169.296C95.407 172.949 96.6323 175.209 99.0915 179.042C102.546 184.426 105.108 187.126 107.724 192.965L107.751 193.025C109.337 196.566 110.256 198.618 111.065 202.432C111.768 205.745 111.762 207.68 111.901 211.064C112.141 216.941 111.464 220.233 111.065 226.101C110.866 229.038 110.481 230.675 110.508 233.619C110.532 236.238 110.824 237.695 111.065 240.302C111.357 243.459 111.225 245.28 111.901 248.378C112.663 251.872 114.964 257.01 114.964 257.01C114.964 257.01 116.998 259.88 118.583 261.465C120.169 263.05 121.196 263.808 123.039 265.085C125.001 266.445 126.132 267.216 128.329 268.148C130.516 269.076 131.816 269.561 134.177 269.819C135.691 269.984 136.591 270.156 138.075 269.819C138.982 269.613 139.441 269.331 140.303 268.983C141.071 268.674 141.5 268.495 142.252 268.148C143.136 267.741 143.603 267.455 144.48 267.034C145.664 266.465 146.45 266.372 147.543 265.642C148.109 265.264 148.401 265.003 148.9 264.56L148.935 264.528C149.51 264.017 149.831 263.723 150.328 263.136C150.679 262.721 151.034 262.55 151.163 262.022C151.24 261.705 151.341 261.46 151.163 261.187C150.86 260.722 150.29 261.271 149.771 261.465C149.177 261.687 148.947 262.02 148.378 262.3C147.453 262.756 146.88 262.916 145.872 263.136C145.016 263.323 144.521 263.378 143.645 263.414Z" fill="#693327"/>
<path d="M82.941 198.255V193.8L86.004 198.255C86.004 198.255 87.8467 201.325 89.067 203.268C90.8639 206.128 92.0484 207.619 93.8008 210.507C95.1651 212.756 95.8522 214.063 97.1422 216.355C98.2405 218.306 99.9268 221.367 99.9268 221.367C99.9268 221.367 99.4395 222.397 99.0914 223.038C98.1561 224.761 97.4898 225.652 96.3069 227.215C94.8192 229.181 93.8585 230.191 92.13 231.949C90.6734 233.43 89.8477 234.263 88.2316 235.569C87.3857 236.252 86.004 237.239 86.004 237.239C86.004 237.239 85.71 236.204 85.4471 235.569C85.0191 234.534 84.5153 234.083 84.0548 233.062C83.4889 231.809 83.4094 231.014 82.941 229.721C82.3426 228.069 81.7104 227.245 81.2702 225.544C80.8849 224.055 81.035 223.15 80.7133 221.646C80.4539 220.433 80.0095 219.816 79.8779 218.583C79.7274 217.173 79.9943 216.371 80.1564 214.963C80.3199 213.542 80.4439 212.748 80.7133 211.343C80.9865 209.918 81.2224 209.137 81.5487 207.723C81.8749 206.309 82.094 205.524 82.384 204.103C82.6271 202.912 82.8379 202.251 82.941 201.04C83.0332 199.956 82.941 199.343 82.941 198.255Z" fill="#55291C"/>
<path d="M89.9026 180.156C90.1785 182.807 90.6512 184.252 91.2949 186.839C92.0342 189.81 92.0052 191.697 93.5225 194.357C94.5575 196.171 95.5218 196.933 96.864 198.534C98.5467 200.541 99.6949 201.492 101.319 203.546C102.966 205.628 105.218 209.115 105.218 209.115V204.66C105.218 201.941 105.389 200.412 105.218 197.698C105.052 195.073 104.912 193.592 104.382 191.015C103.835 188.352 103.648 186.765 102.433 184.332C101.49 182.444 100.509 181.655 99.3701 179.877C98.344 178.275 97.8772 177.31 96.864 175.7C95.611 173.709 94.9099 172.588 93.5225 170.688C92.3806 169.124 90.4595 166.79 90.4595 166.79C90.4595 166.79 90.0157 170.686 89.9026 173.194C89.78 175.91 89.6211 177.452 89.9026 180.156Z" fill="#56281B"/>
<path d="M144.202 179.599V165.676L155.785 166.869L158.681 178.803L144.202 179.599Z" fill="#EABA8C"/>
<path d="M158.124 118.895C158.124 118.895 158.826 122.781 158.96 125.3C159.052 127.037 159.153 128.026 158.96 129.755C158.787 131.302 158.242 133.772 158.124 135.324" stroke="#F4CF9E" stroke-linecap="round"/>
<path d="M251.129 248.934C250.572 248.378 219.663 245.315 219.663 245.315L217.436 249.213L215.208 252.833L211.31 258.402L206.019 265.92L201.285 273.439L197.665 265.92L194.881 258.68L191.261 250.048C191.261 250.048 187.704 242.823 185.692 238.075C184.186 234.524 183.668 232.397 182.072 228.886C180.24 224.856 178.791 222.805 176.781 218.861C175.677 216.695 173.996 213.292 173.996 213.292C173.996 213.292 174.035 211.255 173.996 209.951C173.922 207.441 173.439 203.546 173.439 203.546L173.161 196.306V187.952C173.161 185.778 173.576 184.518 173.161 182.383C172.945 181.269 172.962 180.539 172.326 179.599C171.764 178.768 171.141 178.577 170.376 177.928C169.081 176.829 167.035 175.143 167.035 175.143C167.035 175.143 164.884 172.88 163.415 171.524C161.543 169.795 160.312 169.034 158.403 167.347C156.961 166.073 156.41 165.031 154.783 164.005C153.382 163.122 152.446 162.887 150.884 162.334C149.392 161.806 148.534 161.554 146.986 161.221C145.588 160.919 144.761 160.982 143.366 160.664C141.924 160.335 141.179 159.917 139.746 159.55C138.775 159.301 138.237 159.101 137.24 158.993C136.267 158.887 135.539 158.436 134.734 158.993C134.287 159.302 134.051 159.585 133.899 160.107C133.638 160.998 134.261 161.535 134.734 162.334C135.166 163.065 135.759 163.175 136.405 163.727C137.329 164.516 138.109 164.561 139.189 165.119C140.616 165.856 141.594 165.921 143.088 166.511C144.756 167.17 145.375 167.671 146.986 168.46C148.314 169.111 149.418 170.921 150.606 171.802C152.475 173.188 154.783 174.308 154.783 174.308H146.429H144.48C143.284 174.308 142.817 174.171 141.695 174.587C141.101 174.807 140.69 175.198 140.303 175.7C139.769 176.395 139.806 176.496 139.746 177.371C139.671 178.456 139.746 180.156 139.746 180.156C139.746 180.156 138.645 180.116 138.076 180.434C137.601 180.699 137.219 180.791 136.962 181.269C136.537 182.059 136.775 182.605 136.683 183.497C136.616 184.146 136.683 184.611 136.683 184.611C136.683 184.611 133.556 183.881 133.342 185.168C133.306 185.382 133.342 185.725 133.342 185.725C133.333 188.337 133.126 189.796 133.063 192.408C132.977 195.995 132.752 198.022 133.063 201.597C133.149 202.578 132.715 203.343 133.342 204.103C133.806 204.666 134.283 204.938 135.012 204.938C135.742 204.938 136.045 204.456 136.683 204.103C137.238 203.796 138.075 203.268 138.075 203.268C138.075 203.268 138.116 204.762 138.632 205.495C139.033 206.065 139.331 206.671 140.025 206.609C140.806 206.539 141.139 204.381 141.139 204.381L141.695 202.154C141.695 202.154 141.915 200.847 141.974 199.648C142.043 198.236 141.974 197.441 141.974 196.028C141.974 195.049 142.809 194.357 142.809 194.357L143.645 193.8C143.645 193.8 144.196 194.971 144.48 195.749C145.169 197.632 145.117 198.814 145.594 200.761C146.183 203.17 146.488 204.533 147.264 206.888C148.182 209.668 149.454 210.982 150.049 213.849C150.183 214.497 150.513 215.7 150.606 216.355C150.759 217.437 151.441 218.026 151.441 218.026C151.441 218.026 152.555 219.696 152.834 220.253C153.419 221.425 154.257 221.726 155.061 222.76C156.173 224.188 157.567 226.658 157.567 226.658L159.238 231.949L160.63 238.91L163.137 253.111L167.035 275.109L171.49 297.664C171.49 297.664 173.879 309.34 176.224 316.321C177.549 320.266 177.722 322.764 179.844 326.345C181.732 329.532 182.166 330.204 184.856 332.75C186.879 334.664 189.128 336.647 191.539 338.041C194.25 339.608 195.945 341.166 199.057 340.825C201.475 340.561 208.246 334.978 208.246 334.978L214.094 329.13C214.094 329.13 221.717 319.586 223.562 316.321C227.058 310.132 226.068 311.026 228.295 306.575C230.015 303.138 231.171 301.168 232.751 297.664C235.034 292.601 235.927 291.384 238.041 286.248C240.401 280.515 243.61 271.768 244.167 270.376C244.724 268.983 248.344 258.124 248.623 257.288C248.901 256.453 251.686 249.491 251.129 248.934Z" fill="#FDDEB2"/>
<path d="M213.537 307.689L201.285 273.439L210.753 259.237L219.663 245.314L240.826 247.542L251.129 248.934L250.85 250.884L249.458 254.782L222.169 251.44L206.854 274.552C206.854 274.552 207.919 276.051 208.525 277.059C210.409 280.191 211.588 283.185 212.145 285.691C212.702 288.197 214.929 299.892 214.651 302.677C214.372 305.461 213.537 307.689 213.537 307.689Z" fill="#F2CA99"/>
<path d="M215.486 313.536C214.781 311.187 214.243 310.038 213.537 307.689C212.904 305.58 212.338 304.468 211.588 302.398C210.018 298.065 209.591 295.458 207.69 291.26C206.264 288.113 205.027 286.568 203.513 283.463C202.104 280.575 201.803 278.713 200.171 275.945C197.703 271.758 192.096 266.477 192.096 266.477C192.096 266.477 195.022 273.187 196.551 277.615C197.746 281.074 198.306 283.092 199.264 286.546L199.336 286.805C200.831 292.193 201.444 295.273 202.677 300.727C204.074 306.906 205.493 310.287 206.019 316.599C206.371 320.826 206.019 323.218 206.019 327.459V336.927L213.537 329.687L215.486 327.459L216.879 325.51C216.879 325.51 217.346 321.563 216.879 319.105C216.467 316.942 216.12 315.645 215.486 313.536Z" fill="#F9D9AA"/>
<path d="M213.537 292.93L235.535 253.111L222.169 251.44L206.854 274.552L209.917 279.565L212.702 287.64L213.537 292.93Z" fill="#F9D9AA"/>
<path d="M186.805 331.079C189.089 334.312 192.931 339.154 192.931 339.154C192.931 339.154 190.858 337.849 189.59 336.927C188.587 336.197 188.037 335.77 187.084 334.977C185.959 334.042 185.327 333.512 184.299 332.471C183.379 331.54 182.896 330.982 182.071 329.965C181.387 329.12 180.977 328.66 180.401 327.738C179.763 326.717 179.492 326.084 179.023 324.988L179.008 324.953C178.643 324.099 178.473 323.605 178.173 322.725C177.807 321.651 177.681 321.023 177.338 319.941C177.026 318.957 176.814 318.418 176.502 317.435C176.159 316.353 175.987 315.739 175.667 314.65C175.22 313.131 174.964 312.281 174.553 310.752C174.087 309.02 173.439 306.296 173.439 306.296L172.325 301.563C172.325 301.563 171.442 297.497 170.933 294.88C170.469 292.493 170.235 290.788 169.819 288.754C169.328 286.35 168.892 285.036 168.427 282.628C167.885 279.819 167.313 275.388 167.313 275.388C167.313 275.388 168.703 280.301 169.541 283.463C171.061 289.199 171.599 292.496 173.161 298.221C174.564 303.366 175.301 306.274 177.059 311.309C178.877 316.513 179.639 319.596 182.35 324.396C183.893 327.127 184.996 328.517 186.805 331.079Z" fill="#FADAA9"/>
<path d="M172.604 179.877C172.378 179.475 171.769 179.042 171.769 179.042C171.769 179.042 171.921 180.571 172.047 181.548C172.145 182.31 172.275 182.73 172.325 183.497C172.418 184.912 172.116 185.701 172.047 187.117C171.925 189.615 172.047 191.02 172.047 193.521C172.047 195.044 171.993 195.898 172.047 197.42C172.101 198.945 172.217 199.796 172.325 201.318C172.434 202.841 172.474 203.696 172.604 205.217C172.781 207.287 173.086 208.431 173.161 210.507C173.2 211.594 172.988 212.218 173.161 213.292C173.425 214.927 174.155 215.678 174.832 217.19C175.666 219.055 176.122 220.109 177.059 221.924C177.975 223.698 178.604 224.63 179.565 226.379C180.338 227.787 180.831 228.546 181.515 229.999C182.262 231.589 182.604 232.518 183.185 234.176C183.971 236.418 184.128 237.763 184.856 240.024C186.144 244.022 187.66 245.908 189.311 249.77C190.249 251.963 191.044 253.477 192.096 255.617C193.019 257.494 192.893 257.711 194.324 259.237C195.172 260.142 196.273 262.3 196.273 262.3C196.273 262.3 195.766 260.942 195.437 260.073C194.901 258.656 194.634 257.848 194.045 256.453C193.44 255.018 192.992 254.262 192.374 252.833C191.677 251.22 191.424 250.258 190.704 248.656C190.005 247.104 189.496 246.29 188.754 244.758C187.971 243.137 187.547 242.221 186.805 240.581C186.022 238.85 185.57 237.885 184.856 236.125C184.158 234.403 183.88 233.394 183.185 231.67C182.566 230.134 182.214 229.273 181.515 227.772C180.898 226.449 180.507 225.73 179.844 224.43C178.273 221.354 177.085 219.783 175.667 216.633C175.087 215.344 174.516 214.685 174.275 213.292C174.089 212.22 174.324 211.594 174.275 210.507C174.17 208.203 173.662 206.956 173.439 204.66C173.271 202.925 173.227 201.947 173.161 200.204C173.06 197.537 173.161 196.038 173.161 193.368V189.066C173.161 187.87 173.034 187.193 173.161 186.003C173.231 185.345 173.439 184.994 173.439 184.332C173.439 183.671 173.27 183.314 173.161 182.662C173.052 182.009 173.022 181.637 172.882 180.991C172.788 180.553 172.823 180.268 172.604 179.877Z" fill="#F5CF9E"/>
<path d="M164.25 170.41C165.354 171.773 166.478 174.308 166.478 174.308V174.587L166.199 174.308L164.807 172.916C164.155 172.263 163.808 171.878 163.136 171.245C162.295 170.452 161.817 170.012 160.909 169.296C160.482 168.959 160.199 168.825 159.795 168.46C159.567 168.254 159.466 168.11 159.238 167.904C158.834 167.539 158.528 167.432 158.124 167.068C157.896 166.862 157.785 166.729 157.567 166.511L156.732 165.676L156.175 165.119C155.958 164.902 155.854 164.76 155.618 164.562C155.318 164.31 155.118 164.208 154.783 164.005C154.159 163.627 153.779 163.466 153.112 163.17C152.577 162.932 152.263 162.83 151.72 162.613C151.176 162.395 150.88 162.25 150.327 162.056C149.58 161.794 149.149 161.68 148.378 161.499C147.838 161.372 147.527 161.344 146.986 161.221C146.549 161.121 146.318 160.988 145.872 160.942C145.548 160.909 145.363 160.956 145.037 160.942C144.269 160.91 143.827 160.874 143.088 160.664C142.524 160.503 142.247 160.302 141.695 160.107C140.427 159.659 139.674 159.527 138.354 159.271C137.704 159.146 137.301 159.229 136.683 158.993C135.603 158.581 134.771 158.422 133.62 157.879C131.983 157.107 131.191 156.429 129.722 155.373C127.403 153.708 126.129 152.699 124.152 150.639C121.291 147.656 119.358 144.127 118.026 142.007C116.628 139.78 117.119 139.994 116.634 138.666C115.594 135.816 114.929 134.171 114.685 131.147C114.33 126.746 116.634 120.009 116.634 120.009C116.634 120.009 116.344 126.546 117.191 130.59C117.991 134.406 119.209 136.365 121.089 139.779C122.937 143.135 124.238 144.885 126.659 147.855C129.137 150.895 130.626 152.561 133.62 155.095C134.981 156.247 135.673 157.027 137.24 157.879C139.144 158.914 140.433 159.009 142.531 159.55C144.678 160.103 145.957 160.09 148.1 160.664C150.891 161.411 152.578 161.692 155.061 163.17C156.856 164.238 157.599 165.217 159.238 166.511C161.184 168.048 162.69 168.482 164.25 170.41Z" fill="#F4CB9D"/>
<path d="M153.391 170.131C151.722 168.783 148.657 167.347 148.657 167.347C148.657 167.347 149.684 168.107 150.049 168.739C150.441 169.418 150.694 169.781 151.163 170.41C151.762 171.213 152.105 171.67 152.834 172.359C153.624 173.106 154.024 173.147 155.061 173.473C155.995 173.766 157.01 174.308 157.01 174.308C157.01 174.308 156.539 173.435 156.175 172.916C155.292 171.657 154.587 171.098 153.391 170.131Z" fill="#F3D1A3"/>
<path d="M149.214 179.877L139.746 179.32V179.877H141.695L146.429 180.156H148.378L151.441 180.434L149.214 179.877Z" fill="#F3D1A3"/>
<path d="M146.429 184.611L136.683 184.054V184.611H138.911L143.645 184.889H145.594L148.657 185.168L146.429 184.611Z" fill="#F3D1A3"/>
<path d="M137.519 198.534V203.546L138.354 202.989V193.8C138.354 193.8 141.643 195.014 143.366 194.078C143.844 193.819 144.589 193.776 144.48 193.243C144.369 192.7 143.633 193.063 143.088 192.965C140.936 192.578 137.519 192.408 137.519 192.408V193.243V198.534Z" fill="#F4C99C"/>
<path d="M153.669 217.19C152.505 216.482 150.606 215.52 150.606 215.52C150.606 215.52 150.572 216.03 150.606 216.355C150.677 217.039 150.866 217.405 151.163 218.026C151.501 218.733 151.779 219.09 152.277 219.696C152.765 220.291 153.043 220.642 153.669 221.089C154.263 221.513 154.693 221.587 155.34 221.924C156.332 222.442 156.948 222.648 157.846 223.316C158.833 224.051 160.074 225.544 160.074 225.544C160.074 225.544 159.898 223.801 159.517 222.759C159.131 221.708 158.887 221.073 158.124 220.253C157.487 219.568 156.944 219.394 156.175 218.861C155.208 218.191 154.674 217.802 153.669 217.19Z" fill="#FBDAA7"/>
<path d="M149.214 119.453C150.123 118.978 151.441 118.061 151.441 118.061C151.441 118.061 149.991 116.607 148.935 115.833C148.108 115.227 147.57 114.996 146.708 114.441C145.719 113.804 145.222 113.354 144.201 112.77C143.357 112.287 142.907 111.93 141.974 111.656C141.132 111.41 140.616 111.208 139.746 111.099C138.876 110.991 138.354 111.099 137.518 111.099C136.534 111.099 135.964 111.127 135.012 111.378C133.977 111.651 133.465 112.015 132.506 112.492C131.504 112.99 130.957 113.302 130 113.884L129.969 113.903C128.984 114.502 128.418 114.846 127.494 115.555C126.577 116.258 125.266 117.504 125.266 117.504C125.266 117.504 126.167 118.811 126.937 119.453C127.797 120.17 128.445 120.338 129.443 120.845C130.615 121.44 131.284 121.756 132.506 122.238C133.786 122.742 134.196 123.157 135.569 123.073C136.359 123.024 137.863 122.982 138.632 122.795C139.813 122.506 139.674 122.504 140.86 122.238C142.74 121.815 143.772 121.472 145.594 120.845C147.026 120.352 147.871 120.154 149.214 119.453Z" fill="#F6F5F3"/>
<circle cx="137.519" cy="116.667" r="6.68296" fill="#1A584D"/>
<path d="M149.492 114.441C150.424 115.749 151.441 118.061 151.441 118.061C151.441 118.061 149.966 116.641 148.935 115.833C148.199 115.256 147.774 114.945 146.986 114.441C146.043 113.838 145.459 113.592 144.48 113.049C143.501 112.505 143.024 112.045 141.974 111.656C141.034 111.308 140.464 111.213 139.468 111.099C138.387 110.976 137.765 110.993 136.683 111.099C135.579 111.208 134.94 111.275 133.899 111.656C132.847 112.042 132.371 112.505 131.392 113.049C130.414 113.592 129.83 113.838 128.886 114.441L128.845 114.467C128.082 114.955 127.638 115.239 126.937 115.833C126.233 116.43 125.266 117.504 125.266 117.504C125.266 117.504 125.737 118.214 126.102 118.618C126.671 119.248 127.067 119.538 127.773 120.01C128.865 120.741 129.625 120.892 130.836 121.402C132.864 122.258 136.126 123.352 136.126 123.352C136.126 123.352 134.766 123.417 133.899 123.352C132.686 123.26 132.009 123.111 130.836 122.795C129.373 122.401 128.611 121.991 127.216 121.402C126.005 120.892 125.404 120.409 124.153 120.01C123.197 119.706 121.646 119.453 121.646 119.453L123.317 118.061C123.317 118.061 122.202 117.5 121.646 116.947C120.853 116.157 120.662 115.484 120.254 114.441C119.966 113.704 119.697 112.492 119.697 112.492C119.697 112.492 121.53 112.367 122.76 112.213C123.839 112.078 124.498 111.951 125.545 111.656C126.823 111.297 127.179 110.37 128.329 109.707C130.061 108.709 131.126 108.251 133.063 107.758C134.658 107.352 135.595 107.186 137.24 107.201C138.778 107.215 139.658 107.342 141.138 107.758L141.187 107.772C142.519 108.145 143.321 108.371 144.48 109.15L144.55 109.197C145.656 109.942 146.331 110.395 147.264 111.378C148.272 112.438 148.643 113.249 149.492 114.441Z" fill="#5D291E"/>
<circle cx="137.519" cy="116.668" r="3.89839" fill="#001A15"/>
<circle cx="134.734" cy="119.452" r="1.11383" fill="#C4C4C4"/>
<circle cx="137.519" cy="116.111" r="1.67074" fill="#C4C4C4"/>
<path d="M173.996 113.883C173.654 114.527 173.161 115.554 173.161 115.554C173.161 115.554 174.184 115.472 174.832 115.554C175.617 115.653 176.557 115.7 177.338 115.832C178.517 116.032 178.649 116.048 179.844 116.111C180.935 116.168 181.537 116.335 182.629 116.389C183.715 116.443 184.605 116.704 185.692 116.668C187.109 116.62 189.033 116.389 189.033 116.389C189.033 116.389 189.832 115.362 190.425 114.997C191.131 114.563 191.65 114.563 192.375 114.161C193.193 113.708 193.885 113.927 194.602 113.326C195.428 112.635 195.582 111.645 196.273 110.82C196.873 110.103 197.341 109.748 197.665 108.871C197.857 108.351 198.779 107.478 198.779 107.478C198.779 107.478 197.548 106.698 196.83 106.365C196.118 106.035 195.024 106.161 194.324 105.808C193.31 105.297 192.638 105.256 191.539 104.972C190.568 104.722 190.021 104.583 189.033 104.415C188.169 104.269 187.682 104.149 186.805 104.137C185.821 104.124 185.264 104.216 184.299 104.415L184.25 104.426C183.505 104.579 183.064 104.67 182.35 104.972C181.405 105.372 180.921 105.721 180.122 106.365C179.404 106.943 178.826 107.104 178.173 107.757C177.521 108.409 177.111 109.013 176.502 109.706C175.785 110.523 175.701 111.021 175.11 111.934C174.634 112.67 174.408 113.109 173.996 113.883Z" fill="#FBFAF8"/>
<circle cx="186.527" cy="109.985" r="6.68296" fill="#1A584D"/>
<circle cx="186.527" cy="109.985" r="3.89839" fill="#001A15"/>
<circle cx="183.742" cy="112.769" r="1.11383" fill="#C4C4C4"/>
<circle cx="186.527" cy="109.428" r="1.67074" fill="#C4C4C4"/>
<path d="M173.718 111.934C173.393 113.327 173.161 115.554 173.161 115.554C173.161 115.554 174.261 113.297 175.11 111.934C175.525 111.268 175.714 110.859 176.224 110.263C176.876 109.502 177.186 109.023 177.895 108.314C178.604 107.605 179.085 107.298 179.844 106.643C180.621 105.973 181.14 105.68 182.072 105.251C183.103 104.776 183.73 104.559 184.856 104.415C185.719 104.306 186.215 104.377 187.084 104.415C188.176 104.464 188.786 104.544 189.868 104.694C191.073 104.861 191.764 104.912 192.931 105.251C194.056 105.577 194.637 105.908 195.716 106.365C196.702 106.782 198.222 107.479 198.222 107.479C198.222 107.479 197.751 108.517 197.387 109.149C196.995 109.828 196.741 110.191 196.273 110.82C195.766 111.502 195.5 111.909 194.881 112.491C194.199 113.131 193.732 113.399 192.931 113.883C192.099 114.386 191.514 114.458 190.704 114.997C189.997 115.467 189.033 116.389 189.033 116.389C189.033 116.389 190.236 116.096 190.982 115.832C191.763 115.556 192.179 115.344 192.931 114.997C193.815 114.59 194.391 114.479 195.159 113.883C195.951 113.268 196.626 112.865 197.387 112.212C198.421 111.325 198.682 110.888 199.893 110.263C200.541 109.929 201.564 109.428 201.564 109.428L202.399 108.592C202.399 108.592 201.534 108.724 201.007 108.592C200.535 108.474 199.893 108.035 199.893 108.035C199.893 108.035 200.544 107.163 201.007 106.643C201.518 106.069 202.087 105.954 202.399 105.251C202.752 104.456 202.677 103.615 202.677 102.745C202.677 101.766 202.399 100.517 202.399 100.517C202.399 100.517 201.542 100.837 201.007 101.074C200.34 101.37 200.04 101.717 199.336 101.909C198.392 102.167 197.804 102.006 196.83 101.909C196.172 101.844 195.807 101.762 195.159 101.631C194.28 101.454 193.813 101.238 192.931 101.074C192.07 100.914 191.578 100.863 190.704 100.796C189.294 100.687 188.498 100.517 187.084 100.517C185.779 100.517 185.021 100.535 183.742 100.796C182.595 101.029 181.976 101.331 180.958 101.909C179.88 102.522 179.369 103.025 178.452 103.859C176.968 105.207 176.072 105.997 175.11 107.757C174.286 109.266 174.109 110.259 173.718 111.934Z" fill="#471F15"/>
<ellipse cx="164.338" cy="131.751" rx="4.95516" ry="3.15659" transform="rotate(-2.72233 164.338 131.751)" fill="#FDDCB1"/>
<path d="M162.928 135.57C163.683 135.57 164.112 135.721 164.861 135.57C165.715 135.397 166.793 134.944 166.793 134.944L168.427 134.489L170.098 134.21C170.098 134.21 170.584 134.233 170.768 134.767C170.988 135.408 170.988 135.075 170.768 135.715L168.714 136.585C167.872 137.017 166.589 137.211 166.589 137.211C166.589 137.211 165.481 137.444 164.861 137.524C163.946 137.643 163.216 137.646 162.301 137.524C161.399 137.404 160.909 137.83 160.212 137.211C159.662 136.722 159.868 136.814 159.826 136.272C159.786 135.757 159.93 135.961 160.212 135.715C160.677 135.309 160.468 135.57 160.996 135.57H162.928Z" fill="#EEC492" fill-opacity="0.48"/>
<ellipse cx="160.63" cy="136.437" rx="2.50611" ry="1.39228" fill="url(#paint2_radial)"/>
<ellipse cx="169.726" cy="135.138" rx="2.50611" ry="1.39228" transform="rotate(-8.91232 169.726 135.138)" fill="url(#paint3_radial)"/>
<path d="M151.998 146.741C149.177 146.923 144.758 146.741 144.758 146.741L149.492 148.412C149.492 148.412 151.081 149.161 151.998 149.804C152.945 150.467 153.378 150.967 154.226 151.753C155.354 152.798 155.87 153.506 157.011 154.538C158.156 155.575 158.764 156.223 160.074 157.044L160.079 157.047C161.395 157.872 162.179 158.362 163.693 158.714C165.388 159.108 166.418 158.891 168.149 158.714C170.144 158.511 171.278 158.29 173.161 157.601C174.759 157.015 175.679 156.647 177.059 155.651C178.744 154.436 179.452 153.429 180.679 151.753C182.003 149.947 182.214 148.599 183.464 146.741C184.545 145.135 186.527 142.842 186.527 142.842L189.59 140.058L186.527 141.45C186.527 141.45 184.163 142.022 182.629 142.286C180.9 142.583 179.913 142.625 178.173 142.842C176.433 143.06 175.432 143.031 173.718 143.399C171.936 143.783 171.014 144.286 169.263 144.792C168.071 145.136 167.42 145.41 166.2 145.627C163.844 146.045 162.462 145.486 160.074 145.627C156.896 145.814 155.175 146.536 151.998 146.741Z" fill="#EF9F94"/>
<path d="M172.071 154.614C173.063 154.21 173.541 153.772 174.577 153.5C175.425 153.278 176.574 152.376 176.805 153.222C177.007 153.964 175.956 154.07 175.412 154.614C174.76 155.267 174.521 155.791 173.742 156.285C172.783 156.892 172.021 156.723 170.957 157.12C170.181 157.41 169.829 158.068 169.008 157.956C168.38 157.87 167.769 157.735 167.616 157.12C167.429 156.374 168.383 156.176 169.008 155.728C170.043 154.987 170.892 155.094 172.071 154.614Z" fill="url(#paint4_linear)"/>
<path d="M182.072 145.627L182.629 144.235L184.299 143.399L185.135 143.121L184.021 144.792L182.072 146.462L180.958 147.298L182.072 145.627Z" fill="#6F0509"/>
<path d="M157.846 148.412H153.669C153.669 148.412 154.786 150.356 155.897 151.196C157.024 152.049 157.685 152.533 158.96 153.145C160.188 153.736 160.982 153.917 162.301 154.259C163.989 154.697 165.014 154.588 166.756 154.538C168.278 154.493 169.158 154.259 170.655 153.981C172.144 153.704 172.907 153.239 174.275 152.588C175.993 151.771 177.004 151.316 178.452 150.082C179.154 149.484 179.514 149.105 180.122 148.412C180.84 147.594 181.793 146.184 181.793 146.184L183.185 143.956L180.122 145.07C180.122 145.07 178.091 145.764 176.781 146.184C175.373 146.636 174.575 146.863 173.161 147.298C171.747 147.733 171.008 148.225 169.541 148.412C168.462 148.549 167.844 148.412 166.756 148.412H162.58H157.846Z" fill="#F6F5F3"/>
<path d="M151.441 148.412H153.669C153.669 148.412 155.618 149.804 155.897 150.639C156.175 151.475 156.454 151.753 156.454 151.753L153.391 149.804L151.441 148.412Z" fill="#9A252D"/>
<defs>
<radialGradient id="paint0_radial" cx="0" cy="0" r="1" gradientUnits="userSpaceOnUse" gradientTransform="translate(194.881 125.021) rotate(90) scale(18.3781 15.5936)">
<stop stop-color="#F29BA8"/>
<stop offset="1" stop-color="#F9D9AA"/>
</radialGradient>
<radialGradient id="paint1_radial" cx="0" cy="0" r="1" gradientUnits="userSpaceOnUse" gradientTransform="translate(134.734 132.54) rotate(90) scale(18.0997 16.7074)">
<stop stop-color="#F29BA8"/>
<stop offset="1" stop-color="#F9D9AA"/>
</radialGradient>
<radialGradient id="paint2_radial" cx="0" cy="0" r="1" gradientUnits="userSpaceOnUse" gradientTransform="translate(160.63 136.437) rotate(90) scale(1.39228 2.50611)">
<stop stop-color="#D39870"/>
<stop offset="1" stop-color="#D39870" stop-opacity="0"/>
</radialGradient>
<radialGradient id="paint3_radial" cx="0" cy="0" r="1" gradientUnits="userSpaceOnUse" gradientTransform="translate(169.726 135.138) rotate(90) scale(1.39228 2.50611)">
<stop stop-color="#D39870"/>
<stop offset="1" stop-color="#D39870" stop-opacity="0"/>
</radialGradient>
<linearGradient id="paint4_linear" x1="172.211" y1="152.867" x2="172.211" y2="157.968" gradientUnits="userSpaceOnUse">
<stop stop-color="#FFCCC2"/>
<stop offset="1" stop-color="#FFCCC2" stop-opacity="0"/>
</linearGradient>
</defs>
</svg>
